<svg width="512" height="512" viewBox="0 0 512 512" fill="none" xmlns="http://www.w3.org/2000/svg">
<rect width="512" height="512" rx="68" fill="white"/>
<path d="M65.58 250.14L94.68 233.58V243.96L75 254.88L94.68 265.8V276.36L65.58 259.8V250.14ZM126.495 263.64C126.495 264.88 126.815 266.1 127.455 267.3C128.135 268.46 129.095 269.42 130.335 270.18C131.575 270.9 133.055 271.26 134.775 271.26C137.455 271.26 139.555 270.4 141.075 268.68C142.635 266.96 143.415 264.68 143.415 261.84V231H154.335V261.84C154.335 265.68 153.515 269.06 151.875 271.98C150.275 274.9 147.995 277.14 145.035 278.7C142.075 280.3 138.655 281.1 134.775 281.1C130.935 281.1 127.575 280.32 124.695 278.76C121.815 277.24 119.575 275.16 117.975 272.52C116.415 269.84 115.615 266.88 115.575 263.64H126.495ZM186.482 281.1C181.482 281.1 176.962 279.98 172.922 277.74C168.922 275.54 165.782 272.5 163.502 268.62C161.222 264.7 160.082 260.3 160.082 255.42C160.082 250.54 161.222 246.16 163.502 242.28C165.782 238.36 168.922 235.3 172.922 233.1C176.962 230.86 181.482 229.74 186.482 229.74C191.482 229.74 195.982 230.86 199.982 233.1C204.022 235.3 207.182 238.36 209.462 242.28C211.742 246.16 212.882 250.54 212.882 255.42C212.882 260.3 211.742 264.7 209.462 268.62C207.182 272.5 204.022 275.54 199.982 277.74C195.982 279.98 191.482 281.1 186.482 281.1ZM186.482 271.26C189.402 271.26 192.042 270.58 194.402 269.22C196.762 267.86 198.602 265.98 199.922 263.58C201.282 261.14 201.962 258.42 201.962 255.42C201.962 252.38 201.282 249.66 199.922 247.26C198.602 244.86 196.762 242.98 194.402 241.62C192.042 240.26 189.402 239.58 186.482 239.58C183.562 239.58 180.922 240.26 178.562 241.62C176.202 242.98 174.342 244.86 172.982 247.26C171.662 249.66 171.002 252.38 171.002 255.42C171.002 258.42 171.662 261.14 172.982 263.58C174.342 265.98 176.202 267.86 178.562 269.22C180.922 270.58 183.562 271.26 186.482 271.26ZM248.471 279.9L238.991 264.48H230.291V279.9H219.371V231H239.051C243.131 231 246.651 231.7 249.611 233.1C252.571 234.46 254.831 236.4 256.391 238.92C257.951 241.44 258.731 244.38 258.731 247.74C258.731 251.1 257.951 254.04 256.391 256.56C254.871 259.04 252.671 260.96 249.791 262.32L261.131 279.9H248.471ZM230.291 254.82H238.571C241.491 254.82 243.751 254.22 245.351 253.02C246.991 251.78 247.811 250.02 247.811 247.74C247.811 245.46 246.991 243.72 245.351 242.52C243.751 241.28 241.491 240.66 238.571 240.66H230.291V254.82ZM277.107 231V279.9H266.187V231H277.107ZM285.758 231H294.458L311.318 258.36L328.178 231H336.878V279.9H325.958V253.08L314.618 271.86H308.018L296.678 253.08V279.9H285.758V231ZM356.443 231V279.9H345.523V231H356.443ZM389.29 283.5H378.79L400.75 227.4H411.25L389.29 283.5ZM415.813 276.36V265.8L435.493 254.88L415.813 243.96V233.58L444.913 250.14V259.8L415.813 276.36Z" fill="black"/>
</svg>
